<?xml version="1.0"?><svg width="793.7007874015749" height="1122.5196850393702" xmlns="http://www.w3.org/2000/svg">
 <metadata id="metadata18081">image/svg+xmlPublic Domainclker.comMohamed Ibrahimmap symbolsmap symbols</metadata>

 <g>
  <title>Layer 1</title>
  <path fill="#ffffff" fill-rule="nonzero" id="path6942" d="m112.278801,168.194336c-35.77771,0 -64.876122,29.098419 -64.876122,64.876129l0,497.448761c0,35.779114 29.098412,64.881104 64.876122,64.881104l497.451607,0c35.77771,0 64.87616,-29.10199 64.87616,-64.881104l0,-497.448761c0,-35.77771 -29.09845,-64.876129 -64.87616,-64.876129l-497.451607,0z"/>
  <path fill="#231f20" fill-rule="nonzero" id="path6944" d="m609.730408,154.901138l-497.451607,0c-43.118248,0 -78.103191,35.051056 -78.103191,78.169327l0,497.448761c0,43.117554 34.984943,78.106079 78.103191,78.106079l497.451607,0c43.118286,0 78.169373,-34.988525 78.169373,-78.106079l0,-497.448761c0,-43.118271 -35.051086,-78.169327 -78.169373,-78.169327m-97.678223,570.263412c-27.37915,0 -51.319122,-22.482361 -51.319122,-48.141541l0,-191.258911c0,-8.729156 -7.07605,-15.805908 -15.805939,-15.805908l-38.092072,0l-0.132965,253.88385l-201.440628,-3.306213l0,-434.625366c0,-22.683594 18.517761,-41.134506 41.267487,-41.134506l118.906387,0c22.683594,0 41.266754,18.450912 41.266754,41.134506l0,4.893951c0,26.651794 -0.132233,152.039795 -2.975586,152.23819l40.737762,0c23.278717,0 42.258636,18.913788 42.258636,42.258636l-0.264496,191.721771c0,12.628357 13.756073,22.482361 25.593781,22.482361c12.829651,0 29.09845,-10.579956 28.304932,-28.368896l-20.303101,-109.452026l-4.497192,-37.100159l3.240784,-108.12738l-9.060486,-0.066101c-20.170135,0 -36.505066,-16.33493 -36.505066,-36.372833l0.991852,-56.609833c0,0 -33.52948,-33.264984 -33.52948,-37.960541c0,0 12.962585,-12.82962 17.591309,-12.82962l67.52182,67.191223c10.58136,10.647461 15.739807,23.344849 15.739807,38.951691l0,145.823395c0,0 4.166565,31.611145 4.166565,31.87561c0,0 20.699158,114.144714 21.095886,120.56311c0,27.571045 -28.900024,48.141541 -54.757629,48.141541"/>
  <path fill="#ffffff" fill-rule="nonzero" id="path6946" d="m545.713928,556.4599c0,-0.264465 -4.166565,-31.87561 -4.166565,-31.87561l0,-145.823395c0,-15.606842 -5.158447,-28.30423 -15.739807,-38.951691l-67.52182,-67.191223c-4.628723,0 -17.591309,12.82962 -17.591309,12.82962c0,4.695557 33.52948,37.960541 33.52948,37.960541l-0.991852,56.609833c0,20.037903 16.33493,36.372833 36.505066,36.372833l9.060486,0.066101l-3.240784,108.12738l4.497192,37.100159l20.303101,109.452026c0.793518,17.78894 -15.475281,28.368896 -28.304932,28.368896c-11.837708,0 -25.593781,-9.854004 -25.593781,-22.482361l0.264496,-191.721771c0,-23.344849 -18.979919,-42.258636 -42.258636,-42.258636l-40.737762,0c2.843353,-0.198395 2.975586,-125.586395 2.975586,-152.23819l0,-4.893951c0,-22.683594 -18.58316,-41.134506 -41.266754,-41.134506l-118.906387,0c-22.749725,0 -41.267487,18.450912 -41.267487,41.134506l0,434.625366l201.440628,3.306213l0.132965,-253.88385l38.092072,0c8.729889,0 15.805939,7.076752 15.805939,15.805908l0,191.258911c0,25.65918 23.939972,48.141541 51.319122,48.141541c25.857605,0 54.757629,-20.570496 54.757629,-48.141541c-0.396729,-6.418396 -21.095886,-120.56311 -21.095886,-120.56311"/>
  <path fill="#231f20" fill-rule="nonzero" id="path6948" d="m507.290527,357.797241c-2.380493,-0.661255 -12.36676,-2.844086 -12.36676,-2.844086l0,25.858307c0,7.142181 5.489075,14.879456 20.500793,18.186401c0,0 0.132263,-19.376648 0,-25.924408c-0.132263,-6.480927 -3.240112,-14.019867 -8.134033,-15.276215"/>
  <path fill="#231f20" fill-rule="nonzero" id="path6950" d="m365.435333,274.667847l-118.906387,0c-6.415512,0 -11.374863,4.960052 -11.374863,11.242615l0,100.257813c0,6.348663 4.959351,11.242615 11.374863,11.242615l118.906387,0c6.348663,0 11.308716,-4.893951 11.308716,-11.242615l0,-100.257813c0,-6.282562 -4.960052,-11.242615 -11.308716,-11.242615"/>
  <text style="cursor: move; " font-weight="bold" xml:space="preserve" text-anchor="middle" font-family="Arial" font-size="200" id="svg_1" y="629.480347" x="306.299194" stroke-width="0" stroke="#000000" fill="#000000">D</text>
 </g>
</svg>